<?xml version="1.0" encoding="UTF-8"?>
<svg xmlns="http://www.w3.org/2000/svg" width="800" height="350" viewBox="0 0 800 350">
    <polyline style="fill:none;stroke:red;stroke-width:4" points="10,226.15384615384613 25,155.76923076923077 40,155.76923076923077 55,155.76923076923077 70,132.3076923076923 85,132.3076923076923 100,132.3076923076923 115,108.84615384615384 130,108.84615384615384 145,85.38461538461536 160,108.84615384615384 175,85.38461538461536 190,85.38461538461536 205,61.923076923076906 220,38.46153846153845 235,38.46153846153845 250,38.46153846153845 265,15.0 280,61.923076923076906 295,85.38461538461536 310,85.38461538461536 325,85.38461538461536 340,108.84615384615384 355,108.84615384615384 370,132.3076923076923 385,108.84615384615384 400,108.84615384615384 415,132.3076923076923 430,132.3076923076923 445,132.3076923076923 460,179.23076923076923 475,179.23076923076923 490,179.23076923076923 505,202.69230769230768 520,179.23076923076923 535,202.69230769230768 550,202.69230769230768 565,202.69230769230768 580,202.69230769230768 595,320.0 610,320.0 625,320.0 640,320.0 655,320.0 670,320.0 685,320.0 700,296.53846153846155 715,296.53846153846155 730,273.0769230769231 745,226.15384615384613" />
    <rect x="10" y="10" width="735" height="330" style="fill:none;stroke:red;stroke-width:4" />
    <text x="735" y="180.0" font-size="14" text-anchor="middle" transform="rotate(-90 755,175.0)">Altitud (m)</text>
    
    <!-- Añadir las etiquetas de altitud a la derecha -->
    <text x="770" y="226.15384615384613" font-size="12" text-anchor="start">184.0</text><text x="770" y="155.76923076923077" font-size="12" text-anchor="start">187.0</text><text x="770" y="155.76923076923077" font-size="12" text-anchor="start">187.0</text><text x="770" y="155.76923076923077" font-size="12" text-anchor="start">187.0</text><text x="770" y="132.3076923076923" font-size="12" text-anchor="start">188.0</text><text x="770" y="132.3076923076923" font-size="12" text-anchor="start">188.0</text><text x="770" y="132.3076923076923" font-size="12" text-anchor="start">188.0</text><text x="770" y="108.84615384615384" font-size="12" text-anchor="start">189.0</text><text x="770" y="108.84615384615384" font-size="12" text-anchor="start">189.0</text><text x="770" y="85.38461538461536" font-size="12" text-anchor="start">190.0</text><text x="770" y="108.84615384615384" font-size="12" text-anchor="start">189.0</text><text x="770" y="85.38461538461536" font-size="12" text-anchor="start">190.0</text><text x="770" y="85.38461538461536" font-size="12" text-anchor="start">190.0</text><text x="770" y="61.923076923076906" font-size="12" text-anchor="start">191.0</text><text x="770" y="38.46153846153845" font-size="12" text-anchor="start">192.0</text><text x="770" y="38.46153846153845" font-size="12" text-anchor="start">192.0</text><text x="770" y="38.46153846153845" font-size="12" text-anchor="start">192.0</text><text x="770" y="15.0" font-size="12" text-anchor="start">193.0</text><text x="770" y="61.923076923076906" font-size="12" text-anchor="start">191.0</text><text x="770" y="85.38461538461536" font-size="12" text-anchor="start">190.0</text><text x="770" y="85.38461538461536" font-size="12" text-anchor="start">190.0</text><text x="770" y="85.38461538461536" font-size="12" text-anchor="start">190.0</text><text x="770" y="108.84615384615384" font-size="12" text-anchor="start">189.0</text><text x="770" y="108.84615384615384" font-size="12" text-anchor="start">189.0</text><text x="770" y="132.3076923076923" font-size="12" text-anchor="start">188.0</text><text x="770" y="108.84615384615384" font-size="12" text-anchor="start">189.0</text><text x="770" y="108.84615384615384" font-size="12" text-anchor="start">189.0</text><text x="770" y="132.3076923076923" font-size="12" text-anchor="start">188.0</text><text x="770" y="132.3076923076923" font-size="12" text-anchor="start">188.0</text><text x="770" y="132.3076923076923" font-size="12" text-anchor="start">188.0</text><text x="770" y="179.23076923076923" font-size="12" text-anchor="start">186.0</text><text x="770" y="179.23076923076923" font-size="12" text-anchor="start">186.0</text><text x="770" y="179.23076923076923" font-size="12" text-anchor="start">186.0</text><text x="770" y="202.69230769230768" font-size="12" text-anchor="start">185.0</text><text x="770" y="179.23076923076923" font-size="12" text-anchor="start">186.0</text><text x="770" y="202.69230769230768" font-size="12" text-anchor="start">185.0</text><text x="770" y="202.69230769230768" font-size="12" text-anchor="start">185.0</text><text x="770" y="202.69230769230768" font-size="12" text-anchor="start">185.0</text><text x="770" y="202.69230769230768" font-size="12" text-anchor="start">185.0</text><text x="770" y="320.0" font-size="12" text-anchor="start">180.0</text><text x="770" y="320.0" font-size="12" text-anchor="start">180.0</text><text x="770" y="320.0" font-size="12" text-anchor="start">180.0</text><text x="770" y="320.0" font-size="12" text-anchor="start">180.0</text><text x="770" y="320.0" font-size="12" text-anchor="start">180.0</text><text x="770" y="320.0" font-size="12" text-anchor="start">180.0</text><text x="770" y="320.0" font-size="12" text-anchor="start">180.0</text><text x="770" y="296.53846153846155" font-size="12" text-anchor="start">181.0</text><text x="770" y="296.53846153846155" font-size="12" text-anchor="start">181.0</text><text x="770" y="273.0769230769231" font-size="12" text-anchor="start">182.0</text><text x="770" y="226.15384615384613" font-size="12" text-anchor="start">184.0</text>
</svg>